<?xml version="1.0"?><svg width="640" height="480" xmlns="http://www.w3.org/2000/svg" preserveAspectRatio="xMidYMid meet">
 <metadata>BullBullmammalbullanimalOpen Clip Art LibraryUtrescuUtrescuimage/svg+xmlen</metadata>
 <g>
  <title>Layer 1</title>
  <path opacity="0.8" fill="#DDA055" id="path15452" d="m409.71875,19.1875c-2.94693,-0.453369 -9.279236,1.692749 -12.90625,4.96875c-8.112,7.176003 -17.939514,22.793503 -19.1875,30.4375c-1.09198,8.112 1.569,17.316002 5.625,19.5c6.552002,3.587997 17.606262,0.613251 25.40625,-6.71875c2.963989,-2.964005 4.21875,-3.434753 4.21875,-1.71875c0,3.276001 -10.445007,12.939255 -15.125,14.03125c-2.18399,0.623993 -7.0065,0.623993 -11.0625,0c-8.735992,-1.091995 -13.591248,-5.759247 -12.03125,-11.53125c0.936005,-3.744003 0.928009,-3.7425 -5,0.9375c-3.276001,2.652 -13.546265,12.326996 -22.90625,21.375c-22.151978,21.528 -40.738739,34.316254 -53.21875,36.65625c-3.432007,0.623993 -10.44574,2.03299 -15.59375,3.125c-11.544006,2.339996 -58.963013,1.088745 -74.875,-2.03125c-5.927979,-1.248001 -15.446503,-3.126495 -21.0625,-4.0625c-5.615997,-1.09201 -13.412506,-2.970749 -17.3125,-4.21875c-13.884003,-4.212006 -23.403992,-2.326508 -41.5,8.4375c-6.084015,3.587997 -11.688507,6.53125 -12.3125,6.53125c-0.623993,0 -2.345749,0.93924 -3.59375,2.03125c-1.403992,1.248001 -6.570251,3.439758 -11.40625,4.84375c-9.203995,2.807999 -17.472992,9.510757 -20.125,16.21875c-0.779999,2.028 -1.375,16.243256 -1.375,31.53125c0,29.484009 -2.196259,46.799744 -7.65625,58.34375c-1.559998,3.588013 -3.281998,7.470764 -3.75,8.71875c-0.468002,1.403992 -4.194244,7.039978 -8.40625,12.5c-10.296005,13.415985 -11.095749,15.266998 -12.34375,25.875c-0.623993,5.14798 -2.346497,11.254242 -4.0625,13.90625c-1.559998,2.496002 -3.407745,6.37851 -4.34375,8.5625c-0.779999,2.18399 -2.188507,5.002014 -2.8125,6.25c-2.496002,4.368011 -0.647507,5.934509 4.8125,4.0625c11.388,-4.056 12.03125,-4.860748 12.03125,-15.46875c0,-5.303986 0.782745,-12.474243 1.71875,-15.90625c5.772003,-22.308014 5.916504,-22.473999 12.3125,-25.75c12.011993,-6.083984 17.474503,-21.058502 21.0625,-57.5625c2.339996,-24.804001 6.410492,-41.336243 9.0625,-36.65625c2.496002,4.367996 8.877747,21.385498 10.59375,27.9375c5.928009,23.088013 8.118744,52.257996 4.21875,57.25c-1.09201,1.247986 -6.415009,5.005249 -11.875,8.28125c-10.764008,6.395996 -15.44101,10.602509 -17.625,16.0625c-0.779999,1.871979 -2.784241,13.707764 -4.65625,26.34375c-3.587997,25.115997 -4.700745,28.231506 -12.96875,36.1875c-2.964005,2.963989 -5.906998,7.347504 -6.375,9.6875c-0.623993,2.496002 -1.720001,4.844513 -2.5,5.3125c-2.496002,1.559998 -1.557007,6.380005 1.875,9.5c2.184006,2.027985 3.093246,4.537506 2.78125,8.4375c-0.468002,9.671997 -1.066742,9.34375 15.78125,9.34375c10.296005,0 15.59375,-0.62674 15.59375,-1.71875c0,-0.936005 -3.914001,-6.07074 -8.75,-11.21875c-8.112,-9.048004 -8.561249,-9.977753 -7.78125,-15.59375c2.028,-12.167999 17.149002,-36.83725 32.125,-52.28125c9.048004,-9.359985 11.240753,-10.600739 24.96875,-14.96875c22.619995,-7.332001 51.618744,-31.351501 67.21875,-55.6875c3.744019,-5.772003 7.501007,-10.59375 8.125,-10.59375c0.779999,-0.156006 2.658508,1.377747 4.0625,3.09375c2.651978,3.432007 2.479004,3.770996 -10.625,16.875c-7.488007,7.332001 -16.224243,17.132507 -19.65625,21.8125c-3.432007,4.680023 -7.783997,10.159241 -9.5,12.03125c-5.772003,6.084015 -10,12.630005 -10,15.75c0,4.679993 5.622986,8.889008 23.875,17.625c21.996002,10.608002 27.625,16.70874 27.625,29.96875c0,7.019989 0.471741,9.03125 2.34375,9.03125c1.247986,0 2.626007,1.878754 3.25,4.21875c0.468018,2.496002 1.094238,5.157745 1.40625,6.09375c0.624023,2.184021 18.411987,8.873749 22,8.09375c1.403992,-0.155975 3.282501,-2.347504 4.0625,-4.6875c2.651978,-7.644012 -3.589752,-16.990753 -20.59375,-30.71875c-22.776001,-18.720001 -30.720764,-27.764252 -31.96875,-36.65625c-2.028015,-13.571991 5.453247,-24.652252 15.28125,-22.15625c2.339996,0.467987 6.536011,3.128998 9.5,5.625c5.927979,5.304016 11.100494,5.931244 15.3125,2.03125c3.276001,-2.96402 14.803253,-7.349243 28.53125,-10.78125c26.832001,-6.864014 35.410248,-8.403992 37.90625,-7c4.056,2.184021 7.657745,6.694489 8.59375,11.0625c0.623993,2.339996 3.725739,5.629242 8.09375,8.28125c10.451996,6.552002 29.821503,28.237 35.4375,39.625c4.056,8.268005 4.969757,12.144989 5.59375,24.625c0.624023,12.324005 1.253754,15.127014 3.59375,16.375c1.716003,0.936005 2.969238,3.755737 3.28125,7.34375c0.311981,4.679993 1.570251,6.567749 6.40625,9.84375c8.579987,5.772003 18.388763,8.403992 26.96875,7c3.899994,-0.468018 7.344513,-1.87674 7.8125,-2.96875c0.936005,-2.651978 -6.415497,-15.446991 -12.1875,-21.375c-2.652008,-2.496002 -7.317505,-5.908752 -10.4375,-7.46875c-12.167999,-6.395996 -18.570251,-18.260986 -23.40625,-44.625c-2.028015,-9.984009 -7.316254,-29.16449 -9.65625,-34.3125c-2.96402,-6.395996 -4.528503,-19.350769 -2.8125,-23.71875c2.339996,-6.23999 4.52951,-1.704498 3.4375,7.1875c-0.624023,5.772003 -0.183502,7.942505 2.3125,11.0625c2.652008,3.276001 4.385742,3.906006 11.09375,3.75c7.175995,0 8.570251,-0.789246 13.40625,-5.78125c2.963989,-3.119995 5.46875,-7.158752 5.46875,-8.71875c0,-1.716003 0.782501,-3.594482 1.5625,-4.0625c0.936005,-0.468018 1.5625,-4.382019 1.5625,-8.75l0,-7.625l-5.3125,0c-2.808014,0 -6.09549,-1.095764 -7.1875,-2.34375c-1.09201,-1.403992 -2.470001,-10.45575 -3.25,-21.84375c-0.779999,-10.608002 -2.502258,-22.318497 -3.90625,-26.0625c-1.247986,-3.744003 -3.126251,-9.035507 -3.90625,-11.6875c-0.779999,-2.807999 -2.815002,-5.782501 -4.375,-6.5625c-1.559998,-0.936005 -5.442749,-4.818756 -8.71875,-8.71875l-5.9375,-7.34375l6.40625,3.28125c8.423981,4.367996 16.538239,11.542496 20.90625,18.5625c3.119995,5.147995 3.563263,8.123749 4.03125,26.84375c0.623993,24.335999 1.730499,28.0625 9.0625,28.0625c4.212006,0 6.384003,-1.385498 12,-7.9375c7.175995,-8.268005 10.445007,-17.007507 15.125,-41.1875c4.992004,-25.740005 22.780029,-52.265747 41.5,-62.09375c10.296021,-5.304001 5.322266,-7.4935 -8.09375,-3.4375c-4.211975,1.248001 -11.695251,2.34375 -16.53125,2.34375c-7.332031,0 -9.69397,-0.786499 -13.75,-4.0625c-3.744019,-3.119995 -4.372498,-4.532745 -2.8125,-5.46875c1.247986,-0.779999 2.65799,-0.466492 3.75,0.9375c4.211975,5.615997 14.049744,6.712753 25.59375,2.96875c5.14801,-1.716003 9.975708,-2.186493 14.34375,-1.5625c10.140015,1.559998 12.173218,1.401489 22.78125,-1.5625c8.736023,-2.339996 10.286499,-3.415497 13.5625,-9.1875c7.332031,-12.480011 4.065491,-18.416504 -13.5625,-24.8125c-7.643982,-2.807999 -12.007751,-5.602005 -16.84375,-10.75c-12.323975,-13.416 -41.35675,-23.083 -49.46875,-16.375c-3.276001,2.652 -8.87851,0.617752 -11.0625,-3.90625c-1.716003,-3.744003 -1.71524,-5.321999 0.46875,-11.25c1.559998,-3.744003 5.473999,-9.505249 8.75,-12.78125c3.276001,-3.276001 6.0625,-6.407501 6.0625,-7.1875c0,-0.779999 -0.61145,-1.223877 -1.59375,-1.375zm33.1875,14.59375c-0.312012,-0.117004 -0.610229,0.611748 -1.15625,2.09375c-0.624023,1.716003 -1.876221,5.128754 -2.65625,7.46875c-0.936035,2.339996 -3.127502,5.314499 -4.6875,6.5625c-1.716003,1.091995 -2.655273,2.813995 -2.03125,3.75c1.247986,2.339996 9.066284,2.183746 11.40625,-0.15625c2.027954,-2.028 2.184509,-10.791 0.3125,-16.875c-0.546021,-1.793999 -0.875488,-2.726746 -1.1875,-2.84375zm-5.375,40.46875c1.208984,0.292496 1.875,1.53476 1.875,3.71875c0,4.212006 -1.570496,4.839508 -6.5625,2.1875c-3.276001,-1.716003 -3.276733,-1.87825 -0.46875,-3.90625c2.18396,-1.638 3.947266,-2.292496 5.15625,-2zm37.46875,15.59375c0.331543,0.039001 -0.111206,0.783508 -1.28125,2.1875c-1.559998,2.028 -1.401978,2.34375 1.25,2.34375c3.744019,0 5.777466,2.315002 3.4375,3.875c-0.780029,0.467987 -1.5625,0.154999 -1.5625,-0.625c0,-0.936005 -0.782715,-1.71875 -1.71875,-1.71875c-0.780029,0 -1.093018,0.626495 -0.625,1.5625c0.468018,0.779999 -0.002014,1.5625 -1.25,1.5625c-3.588013,0 -4.682495,-4.816254 -1.5625,-7.15625c1.872009,-1.403992 2.980957,-2.070251 3.3125,-2.03125z"/>
 </g>
</svg>